# xmcd CD database file
#
# Track frame offsets:
#	150
#	11361
#	26921
#	38541
#	50457
#	64419
#	75565
#	89301
#	101225
#	114342
#
# Disc length: 1673 seconds
#
# Revision: 0
# Processed by: cddbd v1.5.2PL0 Copyright (c) Steve Scherf et al.
# Submitted via: CDex 1.70beta2
#
DISCID=7606870a
DTITLE=Conway Twitty - Hello Darlin' Classics
DYEAR=2008
DGENRE=Country
TTITLE0=Hello Darlin'
TTITLE1=Touch The Hand
TTITLE2=To See An Angel Cry
TTITLE3=(Lying Here) With Linda On My Mind
TTITLE4=Fifteen Years Ago
TTITLE5=As Soon As I Hang Up The Phone
TTITLE6=Baby's Gone
TTITLE7=I Can't See Me Without You
TTITLE8=Danny Boy
TTITLE9=Big Town
EXTD=YEAR: 2008
EXTT0=
EXTT1=
EXTT2=
EXTT3=
EXTT4=
EXTT5=
EXTT6=
EXTT7=
EXTT8=
EXTT9=
PLAYORDER=
